<svg xmlns="http://www.w3.org/2000/svg" width="21" height="21" fill="none"><path fill="#fff" d="m2.41 12.877.453 1.69c.529 1.973.793 2.96 1.393 3.6a3.5 3.5 0 0 0 1.76 1.015c.853.2 1.84-.065 3.813-.593 1.973-.53 2.96-.793 3.6-1.393a3.55 3.55 0 0 0 .154-.154 7.969 7.969 0 0 1-.887-.13c-.61-.122-1.333-.316-2.189-.545l-.093-.025-.022-.006c-.931-.25-1.71-.458-2.33-.683-.654-.236-1.248-.527-1.752-1a4.812 4.812 0 0 1-1.397-2.419c-.157-.672-.112-1.332.01-2.016.118-.655.328-1.44.58-2.381l.468-1.745.016-.062c-1.68.453-2.565.72-3.155 1.273a3.5 3.5 0 0 0-1.016 1.76c-.199.854.066 1.84.594 3.813Z"/><path fill="#fff" fill-rule="evenodd" d="m18.226 9.376-.453 1.69c-.53 1.974-.793 2.96-1.393 3.6a3.5 3.5 0 0 1-1.76 1.016c-.084.02-.17.035-.257.046-.8.098-1.778-.163-3.556-.64-1.973-.529-2.96-.793-3.6-1.392a3.5 3.5 0 0 1-1.016-1.76c-.199-.854.066-1.84.594-3.814l.453-1.69.214-.792c.398-1.458.665-2.26 1.179-2.808a3.5 3.5 0 0 1 1.76-1.016c.853-.199 1.84.066 3.813.594 1.973.529 2.96.793 3.6 1.393a3.5 3.5 0 0 1 1.016 1.76c.199.853-.066 1.84-.594 3.813ZM9.67 8.58a.656.656 0 0 1 .804-.464L14.7 9.248a.656.656 0 1 1-.34 1.268l-4.226-1.132a.656.656 0 0 1-.464-.804Zm-.68 2.535a.656.656 0 0 1 .804-.464l2.535.68a.656.656 0 1 1-.34 1.268l-2.535-.68a.656.656 0 0 1-.464-.804Z" clip-rule="evenodd"/></svg>