<svg xmlns="http://www.w3.org/2000/svg" viewBox="0 0 600 400" fill="none">
  <rect width="600" height="400" rx="20" fill="#F3FAF5"/>
  <!-- Handshake -->
  <path d="M220 200c20-20 40-10 60 0s40 0 60 0 40-10 60-10" stroke="#0D883C" stroke-width="3" fill="none" opacity="0.3" stroke-linecap="round"/>
  <path d="M220 200c-10 10-20 20-20 40" stroke="#8B5E3C" stroke-width="6" fill="none" opacity="0.25" stroke-linecap="round"/>
  <path d="M400 190c10 10 20 20 20 40" stroke="#A0714F" stroke-width="6" fill="none" opacity="0.25" stroke-linecap="round"/>
  <!-- People outlines -->
  <circle cx="160" cy="140" r="30" fill="#8B5E3C" opacity="0.15"/>
  <path d="M120 230c0-24 18-40 40-40s40 16 40 40" fill="#003B2D" opacity="0.1"/>
  <circle cx="440" cy="140" r="30" fill="#A0714F" opacity="0.15"/>
  <path d="M400 230c0-24 18-40 40-40s40 16 40 40" fill="#0D883C" opacity="0.1"/>
  <!-- Connection circles -->
  <circle cx="300" cy="160" r="40" fill="#0D883C" opacity="0.06" stroke="#0D883C" stroke-width="1" opacity="0.15"/>
  <circle cx="300" cy="160" r="25" fill="#0D883C" opacity="0.08"/>
  <!-- Heart/unity symbol -->
  <path d="M292 155c-4-6-12-6-14 0s6 14 14 20c8-6 16-14 14-20s-10-6-14 0z" fill="#0D883C" opacity="0.2"/>
  <!-- Decorative diamonds -->
  <path d="M80 80l6 6-6 6-6-6z" fill="#0D883C" opacity="0.15"/>
  <path d="M520 320l6 6-6 6-6-6z" fill="#003B2D" opacity="0.15"/>
  <path d="M100 320l4 4-4 4-4-4z" fill="#0D883C" opacity="0.1"/>
  <path d="M500 80l4 4-4 4-4-4z" fill="#003B2D" opacity="0.1"/>
  <!-- African pattern accent bottom -->
  <path d="M180 360 l10-10 10 10 10-10 10 10 10-10 10 10 10-10 10 10 10-10 10 10 10-10 10 10 10-10 10 10 10-10 10 10 10-10 10 10" stroke="#0D883C" stroke-width="2" fill="none" opacity="0.12"/>
</svg>