<svg xmlns="http://www.w3.org/2000/svg" width="155" height="40" fill="none"><path fill="#003B2D" d="M46.086 12.588h3.75V27.75h-3.75V12.588Zm5.237 9.437c0-3.75 2.3-5.987 5.85-5.987s5.85 2.237 5.85 5.987-2.25 6-5.85 6c-3.6 0-5.85-2.187-5.85-6Zm7.938 0c0-2.062-.813-3.275-2.088-3.275-1.275 0-2.075 1.25-2.075 3.275s.788 3.25 2.075 3.25c1.288 0 2.088-1.15 2.088-3.237v-.013Zm5.175 6.463h3.6a1.938 1.938 0 0 0 2.025 1.125c1.425 0 2.175-.775 2.175-1.9v-2.1h-.075a3.55 3.55 0 0 1-3.413 2.05c-2.737 0-4.55-2.088-4.55-5.675 0-3.588 1.725-5.85 4.6-5.85a3.588 3.588 0 0 1 3.45 2.2V16.25h3.75v11.375c0 2.738-2.412 4.438-5.975 4.438-3.312 0-5.375-1.488-5.587-3.563v-.012Zm7.812-6.475c0-1.825-.837-2.975-2.162-2.975s-2.138 1.137-2.138 2.975c0 1.837.8 2.875 2.138 2.875 1.337 0 2.162-1.013 2.162-2.863v-.012Zm5.163 0c0-3.75 2.3-5.988 5.85-5.988s5.862 2.238 5.862 5.988c0 3.75-2.25 6-5.862 6-3.613 0-5.85-2.175-5.85-5.988v-.012Zm7.937 0c0-2.063-.812-3.275-2.087-3.275-1.275 0-2.013 1.262-2.013 3.3 0 2.037.788 3.25 2.063 3.25 1.275 0 2.037-1.163 2.037-3.25v-.025Zm5.2-8.488a1.913 1.913 0 1 1 1.95 1.863 1.823 1.823 0 0 1-1.95-1.838v-.025Zm0 2.75h3.75V27.75h-3.75V16.275Zm17.363 5.738c0 3.75-1.663 5.887-4.513 5.887a3.576 3.576 0 0 1-3.5-2.125h-.075v5.65h-3.75V16.25h3.75v2.05h.075a3.585 3.585 0 0 1 3.475-2.212c2.875.05 4.588 2.2 4.588 5.95l-.05-.025Zm-3.75 0c0-1.825-.838-2.988-2.15-2.988-1.313 0-2.15 1.175-2.163 2.988-.012 1.812.85 2.975 2.163 2.975 1.312 0 2.15-1.138 2.15-2.95v-.025Zm10.187-6c3.113 0 5 1.475 5.088 3.837h-3.413c0-.812-.675-1.325-1.712-1.325-1.038 0-1.5.4-1.5.988 0 .587.412.775 1.25.95l2.4.487c2.287.488 3.262 1.413 3.262 3.15 0 2.375-2.162 3.9-5.35 3.9-3.187 0-5.275-1.525-5.437-3.862h3.612c.113.85.788 1.35 1.888 1.35 1.1 0 1.6-.363 1.6-.963s-.35-.725-1.25-.912l-2.163-.463c-2.237-.462-3.412-1.65-3.412-3.4.025-2.25 2.037-3.712 5.137-3.712v-.025Zm17.888 11.712h-3.613v-2.137h-.075a3.258 3.258 0 0 1-3.325 2.387 3.987 3.987 0 0 1-4.2-4.312V16.25h3.75v6.55c0 1.363.7 2.088 1.863 2.088a1.92 1.92 0 0 0 1.441-.65 1.924 1.924 0 0 0 .459-1.513V16.25h3.75l-.05 11.475Zm1.812-11.475h3.625v2.213h.075a3.328 3.328 0 0 1 3.263-2.425 2.986 2.986 0 0 1 3.187 2.5h.075a3.528 3.528 0 0 1 3.525-2.5 3.632 3.632 0 0 1 2.744 1.114 3.646 3.646 0 0 1 1.006 2.786v7.812h-3.75v-6.812c0-1.25-.562-1.825-1.612-1.825a1.64 1.64 0 0 0-1.638 1.85v6.787h-3.562v-6.862c0-1.15-.563-1.775-1.588-1.775a1.672 1.672 0 0 0-1.598 1.175c-.07.226-.093.465-.064.7v6.762h-3.75l.062-11.5Zm-98.451-2.975a16.562 16.562 0 0 0-2.5-4.025A16.912 16.912 0 1 0 9.747 33.4a16.36 16.36 0 0 0 4 2.288 16.74 16.74 0 0 0 6.338 1.25A16.95 16.95 0 0 0 36.997 20a16.739 16.739 0 0 0-1.4-6.725ZM20.072 6.487a13.4 13.4 0 0 1 5.65 1.25 5.488 5.488 0 0 1-1.35.388 7.162 7.162 0 0 0-6.062 6.063 3.75 3.75 0 0 1-3.388 3.312 7.163 7.163 0 0 0-6.062 6.063 3.637 3.637 0 0 1-.988 2.175A13.5 13.5 0 0 1 20.085 6.462l-.013.025ZM9.735 28.75c.15-.137.3-.262.45-.413A6.85 6.85 0 0 0 12.21 24.3a3.65 3.65 0 0 1 1.087-2.275 3.538 3.538 0 0 1 2.263-1.075 7.163 7.163 0 0 0 6.062-6.063A3.65 3.65 0 0 1 22.71 12.5a3.587 3.587 0 0 1 2.287-1.037 6.85 6.85 0 0 0 3.75-1.788 13.139 13.139 0 0 1 2.95 3.475 1.078 1.078 0 0 1-.162.175 3.588 3.588 0 0 1-2.263 1.1 7.137 7.137 0 0 0-6.062 6.063 3.75 3.75 0 0 1-3.363 3.35 7.2 7.2 0 0 0-6.1 6.062 3.927 3.927 0 0 1-.612 1.713 13.613 13.613 0 0 1-3.4-2.863Zm10.337 4.825a13.551 13.551 0 0 1-3.75-.525 7.226 7.226 0 0 0 .8-2.5 3.75 3.75 0 0 1 3.35-3.35 7.163 7.163 0 0 0 6.075-6.063 3.75 3.75 0 0 1 3.35-3.35 7.137 7.137 0 0 0 3.2-1.25 13.525 13.525 0 0 1-13.025 16.976v.062Z"/></svg>