<svg xmlns="http://www.w3.org/2000/svg" width="135" height="40" fill="none"><path fill="#0D883C" fill-rule="evenodd" d="M4.53 5.948V4H.093v17.948c0 7.76 6.268 14.052 14 14.052s14-6.291 14-14.052V4h-4.436v1.948h-7.485V4h-4.436v1.948H4.53Zm7.207 25.306a9.597 9.597 0 0 1-7.207-9.18 9.397 9.397 0 0 1 4.447 2.506 9.463 9.463 0 0 1 2.76 6.674Zm.376-9.823a13.9 13.9 0 0 1 1.842 2.29 13.9 13.9 0 0 1 4.123-4.138 13.87 13.87 0 0 1-4.123-4.138 13.9 13.9 0 0 1-4.122 4.138 13.861 13.861 0 0 1 2.28 1.849Zm11.545.58a9.595 9.595 0 0 1-7.485 9.31v-.052a9.491 9.491 0 0 1 2.76-6.69 9.424 9.424 0 0 1 4.725-2.568ZM11.4 10.4a9.464 9.464 0 0 1-2.425 4.185 9.424 9.424 0 0 1-4.447 2.506V10.4H11.4Zm12.257 6.754V10.4H16.51a9.483 9.483 0 0 0 2.425 4.185 9.425 9.425 0 0 0 4.724 2.569Z" clip-rule="evenodd"/><path fill="#003B2D" d="M44.094 4v13.103h8.257v-2.375h-5.534V4h-2.723Zm41.584 3.5v9.603h2.635V7.5h-2.635Zm0-3.5v2.638h2.635V4h-2.635Z"/><path fill="#003B2D" fill-rule="evenodd" d="M89.715 20.62V7.5h2.46v.996a3.14 3.14 0 0 1 1.053-.803c.55-.27 1.177-.404 1.88-.404.914 0 1.74.223 2.477.668a4.918 4.918 0 0 1 1.757 1.812c.433.75.65 1.594.65 2.532 0 .926-.217 1.77-.65 2.533a4.784 4.784 0 0 1-1.74 1.811c-.737.446-1.575.669-2.512.669a4.697 4.697 0 0 1-1.827-.352 3.344 3.344 0 0 1-.913-.597v4.255h-2.635Zm5.06-5.68a2.5 2.5 0 0 0 1.3-.335c.374-.223.667-.533.878-.932.21-.399.316-.856.316-1.372 0-.516-.106-.967-.316-1.354a2.322 2.322 0 0 0-.879-.932 2.4 2.4 0 0 0-1.3-.352c-.468 0-.89.111-1.265.334-.363.223-.65.534-.86.932-.2.399-.3.856-.3 1.372 0 .516.1.973.3 1.372.21.399.497.71.86.932.375.223.797.334 1.265.334Z" clip-rule="evenodd"/><path fill="#003B2D" d="M102.01 16.575c.784.492 1.704.739 2.758.739.749 0 1.399-.123 1.95-.37.55-.258.978-.61 1.282-1.055.317-.445.474-.967.474-1.565 0-.692-.21-1.272-.632-1.741-.421-.481-1.03-.839-1.827-1.073l-1.528-.457a3.753 3.753 0 0 1-.598-.23.902.902 0 0 1-.333-.28.616.616 0 0 1-.106-.352c0-.247.094-.44.281-.58.199-.141.469-.212.808-.212.469 0 .885.123 1.248.37.374.234.632.55.773.95l1.95-.915a3.517 3.517 0 0 0-1.511-1.847c-.703-.445-1.523-.668-2.46-.668-.714 0-1.346.129-1.897.387-.551.246-.978.592-1.282 1.037-.305.446-.457.968-.457 1.566 0 .68.211 1.272.632 1.776.422.492 1.025.85 1.81 1.073l1.633.457c.211.059.387.13.528.211a.94.94 0 0 1 .316.282c.07.093.105.21.105.351 0 .27-.099.481-.298.633-.199.153-.486.229-.861.229-.516 0-.984-.146-1.406-.44-.421-.293-.755-.697-1.001-1.213l-1.932.914c.28.845.808 1.519 1.581 2.023Zm17.502.528V7.5h2.46v1.16c.18-.351.431-.632.755-.844.539-.351 1.183-.527 1.933-.527.796 0 1.493.205 2.09.615.355.233.633.513.833.842a3.16 3.16 0 0 1 .907-.894c.585-.376 1.27-.563 2.055-.563.691 0 1.3.152 1.827.457.539.305.96.733 1.265 1.284.304.54.457 1.172.457 1.9v6.173h-2.635v-5.61c0-.376-.071-.698-.211-.968a1.478 1.478 0 0 0-.563-.633c-.245-.153-.544-.229-.896-.229-.339 0-.638.076-.896.229a1.596 1.596 0 0 0-.579.633c-.129.27-.194.592-.194.967v5.61h-2.634v-5.61c0-.375-.071-.697-.211-.967a1.478 1.478 0 0 0-.563-.633c-.245-.153-.544-.229-.896-.229-.339 0-.638.076-.896.229a1.596 1.596 0 0 0-.579.633c-.129.27-.194.592-.194.967v5.61h-2.635Zm-6.546.211c-.773 0-1.435-.165-1.985-.493a3.267 3.267 0 0 1-1.23-1.407c-.281-.598-.422-1.295-.422-2.093V7.5h2.636v5.61c0 .364.07.686.21.968.153.27.363.48.633.633.269.152.574.228.913.228.352 0 .656-.076.914-.228a1.53 1.53 0 0 0 .615-.633c.152-.282.228-.604.228-.968V7.5h2.635v9.603h-2.459v-1.169a2.36 2.36 0 0 1-.949.975c-.492.27-1.072.405-1.739.405Z"/><path fill="#003B2D" fill-rule="evenodd" d="M79.523 17.314a5.283 5.283 0 0 1-2.6-.651 5.107 5.107 0 0 1-1.862-1.777c-.457-.762-.686-1.623-.686-2.585 0-.973.229-1.835.686-2.585a5.108 5.108 0 0 1 1.862-1.776 5.284 5.284 0 0 1 2.6-.651c.948 0 1.81.217 2.582.65a4.97 4.97 0 0 1 1.845 1.777c.468.75.703 1.612.703 2.585 0 .962-.235 1.823-.703 2.585a4.969 4.969 0 0 1-1.845 1.777c-.773.434-1.634.65-2.582.65Zm0-2.375c.48 0 .896-.111 1.247-.334a2.24 2.24 0 0 0 .843-.932 2.89 2.89 0 0 0 .317-1.372c0-.516-.106-.967-.317-1.354a2.242 2.242 0 0 0-.843-.932c-.351-.235-.767-.352-1.247-.352-.48 0-.902.117-1.265.352-.363.223-.65.533-.861.932-.199.387-.299.838-.299 1.354 0 .516.1.973.299 1.372.211.399.498.71.86.932.364.223.785.334 1.266.334ZM66.55 20.602a5.6 5.6 0 0 0 2.055.37c.926 0 1.74-.188 2.442-.563a4.262 4.262 0 0 0 1.687-1.565c.41-.657.615-1.407.615-2.252V7.5h-2.46v1.008a3.3 3.3 0 0 0-.984-.797c-.515-.281-1.118-.422-1.81-.422-.877 0-1.662.2-2.353.598a4.338 4.338 0 0 0-1.634 1.653c-.398.692-.597 1.49-.597 2.392 0 .903.199 1.712.597 2.427.398.703.949 1.26 1.651 1.67.703.4 1.5.599 2.39.599.69 0 1.294-.13 1.809-.387.28-.146.531-.332.756-.558v.91c0 .41-.088.767-.264 1.072a1.572 1.572 0 0 1-.72.686c-.317.164-.691.247-1.125.247-.55 0-1.024-.13-1.423-.387a1.828 1.828 0 0 1-.79-1.056l-2.442.862c.2.598.521 1.114.966 1.548a4.807 4.807 0 0 0 1.634 1.037Zm3.127-6.648c-.328.188-.714.282-1.16.282-.444 0-.843-.094-1.194-.282a2.215 2.215 0 0 1-.808-.809 2.401 2.401 0 0 1-.281-1.178c0-.457.093-.856.28-1.196.2-.352.47-.621.809-.809.351-.2.75-.299 1.194-.299.434 0 .815.1 1.142.3.328.187.586.456.773.808.188.34.282.739.282 1.196 0 .457-.094.856-.282 1.196-.175.34-.427.604-.755.791Zm-11.935 3.36a5.282 5.282 0 0 1-2.6-.651 5.108 5.108 0 0 1-1.862-1.777c-.457-.762-.686-1.623-.686-2.585 0-.973.229-1.835.686-2.585a5.109 5.109 0 0 1 1.862-1.776 5.283 5.283 0 0 1 2.6-.651c.949 0 1.81.217 2.582.65a4.971 4.971 0 0 1 1.845 1.777c.469.75.703 1.612.703 2.585 0 .962-.234 1.823-.703 2.585a4.97 4.97 0 0 1-1.845 1.777c-.773.434-1.633.65-2.582.65Zm0-2.375c.48 0 .896-.111 1.247-.334.363-.223.645-.533.844-.932.21-.399.316-.856.316-1.372 0-.516-.106-.967-.316-1.354a2.242 2.242 0 0 0-.844-.932c-.351-.235-.767-.352-1.247-.352-.48 0-.902.117-1.265.352-.363.223-.65.533-.86.932-.2.387-.3.838-.3 1.354 0 .516.1.973.3 1.372.21.399.497.71.86.932.363.223.785.334 1.265.334Z" clip-rule="evenodd"/><path fill="#003B2D" d="M46.04 32.449c.589.324 1.27.486 2.046.486.785 0 1.467-.162 2.046-.486a3.488 3.488 0 0 0 1.369-1.326c.323-.57.485-1.218.485-1.945V21.78H50.81v7.397c0 .53-.118.997-.353 1.4a2.419 2.419 0 0 1-.957.928c-.403.216-.873.324-1.413.324s-1.016-.108-1.428-.324a2.554 2.554 0 0 1-.957-.928c-.225-.403-.338-.87-.338-1.4V21.78h-1.178v7.397c0 .727.162 1.375.486 1.945.324.56.78 1.002 1.369 1.326Zm15.888-7.589v7.898h1.104V24.86h-1.104Zm0-3.08v1.622h1.104V21.78h-1.104ZM92.06 32.758V24.86h1.105v7.898H92.06Zm0-9.356V21.78h1.105v1.62H92.06Zm4.306 8.826c.383.413.927.619 1.634.619.088 0 .206-.01.353-.03.147-.01.28-.03.397-.059v-.987a7.95 7.95 0 0 1-.28.03c-.107.01-.2.014-.279.014-.324 0-.584-.059-.78-.177a.977.977 0 0 1-.397-.471 1.98 1.98 0 0 1-.118-.707v-4.495h1.737V24.86h-1.737v-1.827h-1.104v.663c0 .334-.098.614-.294.84-.197.216-.462.324-.795.324h-.368v1.105h1.457v4.495c0 .766.191 1.355.574 1.768Zm3.558 3.728c.166.03.328.044.485.044.52 0 .962-.108 1.325-.324.363-.207.662-.482.898-.825a5.44 5.44 0 0 0 .603-1.09l3.606-8.9h-1.221l-2.569 6.519-2.583-6.52h-1.192l3.155 7.904-.285.672c-.245.57-.495.953-.751 1.15-.255.206-.623.309-1.103.309a2.55 2.55 0 0 1-.472-.044 11.37 11.37 0 0 0-.367-.044v1.03c.157.06.314.1.47.119Zm-14.16-3.596c.57.384 1.232.575 1.987.575.55 0 1.035-.093 1.457-.28a2.38 2.38 0 0 0 .987-.81c.245-.344.368-.732.368-1.164 0-.53-.182-.992-.545-1.385-.353-.393-.849-.683-1.487-.87l-1.31-.383a4.45 4.45 0 0 1-.485-.177 1.354 1.354 0 0 1-.471-.353c-.138-.158-.206-.369-.206-.634 0-.344.132-.629.397-.855.265-.226.618-.338 1.06-.338.451 0 .858.127 1.221.383.373.245.658.589.854 1.031l.942-.442a2.778 2.778 0 0 0-1.163-1.444 3.232 3.232 0 0 0-1.81-.53c-.49 0-.937.093-1.34.28a2.311 2.311 0 0 0-.956.795 2.086 2.086 0 0 0-.353 1.209c0 .49.162.923.485 1.296.324.373.85.663 1.575.87l1.133.324c.157.039.339.103.545.191.206.089.388.216.545.383.157.157.235.374.235.649 0 .373-.162.677-.486.913-.323.226-.72.34-1.192.34a2.33 2.33 0 0 1-1.354-.428 2.866 2.866 0 0 1-.942-1.15l-.927.442a3.25 3.25 0 0 0 1.236 1.563Zm-5.282.398V24.86h1.104v.855c.176-.257.406-.468.692-.634.382-.216.843-.324 1.383-.324h.5v1.105h-.691c-.57 0-1.026.177-1.37.53-.343.354-.514.855-.514 1.504v4.862h-1.104Z"/><path fill="#003B2D" fill-rule="evenodd" d="M73.458 32.405a3.86 3.86 0 0 0 2.001.53c.54 0 1.03-.088 1.472-.265a3.951 3.951 0 0 0 1.163-.722c.324-.305.564-.634.721-.987l-.942-.501a3.312 3.312 0 0 1-.956 1.031c-.393.275-.879.413-1.458.413-.5 0-.971-.128-1.413-.384a2.787 2.787 0 0 1-1.03-1.075 2.841 2.841 0 0 1-.306-1.297h6.208a4.438 4.438 0 0 0 .059-.707c0-.472-.083-.928-.25-1.37a3.766 3.766 0 0 0-.721-1.209 3.32 3.32 0 0 0-1.148-.854c-.442-.216-.947-.324-1.516-.324-.717 0-1.364.176-1.943.53-.57.354-1.02.84-1.354 1.459-.334.609-.5 1.311-.5 2.107 0 .796.171 1.508.514 2.136.344.63.81 1.125 1.399 1.489Zm4.336-4.288h-5.067c.037-.349.128-.663.274-.943.236-.462.56-.82.972-1.076a2.596 2.596 0 0 1 1.369-.383c.49 0 .932.128 1.324.383.393.246.692.585.898 1.017.155.303.232.637.23 1.002Z" clip-rule="evenodd"/><path fill="#003B2D" d="m66.954 32.758-3.076-7.898h1.237l2.392 6.396 2.406-6.396h1.251l-3.106 7.898h-1.104Zm-13.022 0V24.86h1.104v.979c.183-.284.419-.521.706-.713.452-.295.972-.442 1.56-.442.56 0 1.06.127 1.502.383.451.255.804.609 1.06 1.06.264.443.397.944.397 1.504v5.127h-1.104v-4.7c0-.482-.088-.89-.265-1.223a1.758 1.758 0 0 0-.721-.766 1.986 1.986 0 0 0-1.06-.28c-.402 0-.76.093-1.074.28a1.83 1.83 0 0 0-.736.78c-.177.335-.265.737-.265 1.209v4.7h-1.104Z"/></svg>