<svg xmlns="http://www.w3.org/2000/svg" width="192" height="40" fill="none"><g clip-path="url(#a)"><path fill="#0D883C" d="M25.014 8.05a3.303 3.303 0 0 1 2.344-.977h11.345c7.377 0 11.072 8.983 5.855 14.237L33.195 32.754c-.522.525-1.414.153-1.414-.59v-10.08l1.313-1.322c1.044-1.05.305-2.847-1.17-2.847H15.218l9.795-9.865Z"/><path fill="#0D883C" d="M21.986 31.95a3.303 3.303 0 0 1-2.343.977H8.297c-7.377 0-11.072-8.983-5.855-14.237L13.805 7.246c.522-.525 1.414-.153 1.414.59v10.079l-1.313 1.323c-1.043 1.05-.305 2.847 1.17 2.847h16.705l-9.795 9.865Z"/><path fill="#003B2D" d="M122.182 13.539v13.85h4.154v-13.85h-4.154Zm.29-2.304c.491.48 1.091.72 1.801.72.709 0 1.306-.24 1.787-.72.491-.48.737-1.064.737-1.75 0-.704-.246-1.292-.737-1.764-.481-.48-1.078-.721-1.787-.721-.71 0-1.31.24-1.801.72-.491.473-.737 1.06-.737 1.764 0 .687.246 1.27.737 1.75Z"/><path fill="#003B2D" fill-rule="evenodd" d="M128.68 32.794V13.54h3.944v1.377h.051c.249-.24.516-.459.803-.657.929-.635 1.998-.952 3.208-.952 1.06 0 2.072.27 3.037.81.972.541 1.761 1.344 2.366 2.408.604 1.064.898 2.39.881 3.977.008 1.201-.163 2.248-.513 3.14-.351.884-.824 1.618-1.42 2.202a6 6 0 0 1-1.998 1.313 6.02 6.02 0 0 1-2.235.437c-1.192 0-2.261-.326-3.208-.978a6.724 6.724 0 0 1-.677-.54h-.085v6.718h-4.154Zm7.151-8.598c.613-.009 1.153-.167 1.617-.476.464-.31.829-.747 1.091-1.313.263-.566.391-1.227.381-1.982.01-.773-.122-1.433-.394-1.982-.263-.558-.635-.983-1.117-1.275-.482-.3-1.035-.446-1.656-.437a2.822 2.822 0 0 0-1.578.424c-.465.292-.833.717-1.104 1.275-.272.549-.408 1.214-.408 1.995 0 .755.136 1.416.408 1.982.28.566.657 1.004 1.13 1.313a2.997 2.997 0 0 0 1.63.476Z" clip-rule="evenodd"/><path fill="#003B2D" d="M146.969 27.17a6.963 6.963 0 0 0 2.419.424c.964 0 1.845-.184 2.642-.553.807-.37 1.45-.884 1.933-1.545.491-.67.735-1.437.735-2.304 0-.686-.148-1.266-.446-1.738a3.722 3.722 0 0 0-1.104-1.158c-.439-.3-.89-.536-1.354-.708-.465-.18-.872-.317-1.223-.412a34.22 34.22 0 0 1-1.315-.399 3.97 3.97 0 0 1-1.038-.489c-.272-.189-.408-.438-.408-.746 0-.31.136-.567.408-.773.271-.206.613-.309 1.026-.309.49 0 .893.13 1.209.386.324.258.569.524.736.799l3.194-1.352c-.403-.892-1.087-1.609-2.05-2.15-.956-.54-2.034-.81-3.234-.81-.964 0-1.823.176-2.577.527-.745.352-1.336.841-1.775 1.468-.429.617-.643 1.334-.643 2.15 0 .771.183 1.428.551 1.969.369.54.846.986 1.434 1.338a8.737 8.737 0 0 0 1.893.811c.289.077.604.163.946.258.35.094.683.205.999.334.315.129.574.283.775.463.202.18.303.395.303.644 0 .197-.07.382-.211.553a1.457 1.457 0 0 1-.552.425 2.06 2.06 0 0 1-.828.155c-.596 0-1.113-.18-1.551-.54-.438-.361-.766-.743-.986-1.146l-3.26 1.403a5.147 5.147 0 0 0 1.328 1.827 6.444 6.444 0 0 0 2.024 1.197Zm24.616.218v-13.85h3.956v1.764h.073a5.07 5.07 0 0 1 1.045-1.068c.789-.601 1.722-.901 2.8-.901.894 0 1.652.214 2.274.643.48.32.871.75 1.174 1.287h.074a4.79 4.79 0 0 1 1.631-1.313 6.048 6.048 0 0 1 2.721-.617c.938 0 1.709.163 2.313.489.605.317 1.079.738 1.42 1.261.342.515.583 1.081.723 1.7.141.608.211 1.2.211 1.775v8.83h-4.181V19.06c0-.755-.162-1.334-.486-1.737-.315-.412-.78-.618-1.393-.618-.404 0-.763.09-1.078.27a1.851 1.851 0 0 0-.736.785c-.176.352-.263.786-.263 1.3v8.328h-4.154V19.06c0-.755-.162-1.334-.487-1.737-.324-.412-.793-.618-1.406-.618-.596 0-1.091.202-1.486.605-.394.395-.591.987-.591 1.776v8.302h-4.154Zm-10.166.206c-.972 0-1.857-.202-2.654-.605a4.705 4.705 0 0 1-1.907-1.802c-.464-.798-.697-1.78-.697-2.947v-8.701h4.154v8.16c0 .798.211 1.407.631 1.828.43.412.952.618 1.565.618.456 0 .855-.1 1.196-.296a2.06 2.06 0 0 0 .815-.837c.202-.37.302-.807.302-1.313v-8.16h4.154v8.997c0 .497.075.858.224 1.08.149.224.451.417.907.58l-1.473 3.398c-1.042-.266-1.805-.613-2.287-1.043a2.183 2.183 0 0 1-.551-.746h-.106a7.226 7.226 0 0 1-1.222.965c-.886.55-1.902.824-3.051.824Z"/><path fill="#003B2D" fill-rule="evenodd" d="M113.188 27.594c-1.359 0-2.599-.305-3.721-.914a7.111 7.111 0 0 1-2.669-2.523c-.657-1.072-.985-2.308-.985-3.706 0-1.4.328-2.635.985-3.707a7.013 7.013 0 0 1 2.669-2.51c1.122-.601 2.362-.901 3.721-.901 1.384 0 2.633.3 3.746.9a6.808 6.808 0 0 1 2.642 2.51c.657 1.073.986 2.309.986 3.708 0 1.398-.329 2.634-.986 3.706a6.874 6.874 0 0 1-2.655 2.523c-1.113.61-2.357.914-3.733.914Zm0-3.475c.648 0 1.231-.155 1.748-.463a3.3 3.3 0 0 0 1.222-1.288c.298-.549.447-1.188.447-1.917 0-.704-.144-1.33-.434-1.88a3.236 3.236 0 0 0-1.196-1.287c-.508-.317-1.096-.476-1.761-.476a3.44 3.44 0 0 0-1.775.463 3.2 3.2 0 0 0-1.222 1.275c-.298.549-.448 1.184-.448 1.905 0 .729.15 1.368.448 1.917a3.318 3.318 0 0 0 2.971 1.75Zm-19.67 8.456c.981.283 2.06.425 3.234.425 1.096 0 2.099-.137 3.01-.412.912-.266 1.7-.67 2.366-1.21a5.48 5.48 0 0 0 1.565-2.008c.368-.798.552-1.724.552-2.78V13.526h-3.773v1.351h-.079a6.15 6.15 0 0 0-.815-.643c-.911-.61-1.976-.914-3.194-.914a6.325 6.325 0 0 0-3.037.785c-.973.515-1.77 1.287-2.392 2.317-.614 1.02-.92 2.304-.92 3.848 0 1.159.179 2.167.538 3.025.36.858.837 1.575 1.434 2.15a6.16 6.16 0 0 0 2.01 1.274 6.315 6.315 0 0 0 2.222.412c1.201 0 2.27-.322 3.208-.966.296-.206.574-.433.83-.682h.063v1.339c0 .66-.218 1.193-.657 1.596a3.96 3.96 0 0 1-1.59.9 6.198 6.198 0 0 1-1.801.284 6.402 6.402 0 0 1-1.999-.322 8.17 8.17 0 0 1-1.708-.746l-1.367 3.192c.56.291 1.328.575 2.3.85Zm5.416-9.216c-.482.31-1.038.464-1.67.464-.622 0-1.17-.155-1.643-.464a3.279 3.279 0 0 1-1.117-1.3c-.271-.557-.408-1.197-.408-1.917 0-.721.137-1.348.408-1.88.28-.532.666-.94 1.157-1.222a3.204 3.204 0 0 1 1.67-.438c.621 0 1.17.142 1.643.425.473.283.845.69 1.117 1.223.271.523.407 1.154.407 1.892 0 .729-.14 1.373-.42 1.93-.28.55-.662.979-1.144 1.287Zm-17.329 4.235c-1.359 0-2.599-.305-3.72-.914a7.101 7.101 0 0 1-2.669-2.523c-.657-1.072-.986-2.308-.986-3.706 0-1.4.329-2.635.986-3.707a7.004 7.004 0 0 1 2.668-2.51c1.122-.601 2.362-.901 3.72-.901 1.385 0 2.634.3 3.747.9a6.814 6.814 0 0 1 2.642 2.51c.657 1.073.986 2.309.986 3.708 0 1.398-.329 2.634-.986 3.706a6.88 6.88 0 0 1-2.655 2.523c-1.113.61-2.357.914-3.733.914Zm0-3.475c.648 0 1.23-.155 1.748-.463a3.305 3.305 0 0 0 1.223-1.288c.298-.549.446-1.188.446-1.917 0-.704-.144-1.33-.434-1.88a3.235 3.235 0 0 0-1.196-1.287c-.508-.317-1.096-.476-1.761-.476a3.44 3.44 0 0 0-1.775.463c-.517.3-.925.725-1.222 1.275-.298.549-.448 1.184-.448 1.905 0 .729.15 1.368.448 1.917a3.318 3.318 0 0 0 2.971 1.75Z" clip-rule="evenodd"/><path fill="#003B2D" d="M63 8.416v18.972h11.292V23.63h-6.98V8.416H63Z"/></g><defs><clipPath id="a"><path fill="#fff" d="M0 0h192v40H0z"/></clipPath></defs></svg>