<svg xmlns="http://www.w3.org/2000/svg" width="187" height="40" fill="none"><path fill="#003B2D" d="M29.895 17.828a4.875 4.875 0 0 0-1.395 3.905l-.024-.024a5.792 5.792 0 0 1-6.259 6.259l.024.024a4.904 4.904 0 1 0 4.428 4.424l.026.024a5.79 5.79 0 0 1 6.258-6.259l-.025-.024a4.895 4.895 0 1 0-3.03-8.329h-.003Z"/><path fill="#003B2D" d="m20.055 24.848-.025-.024a4.842 4.842 0 0 0 5.302-5.299l.026.024a5.793 5.793 0 0 1 6.258-6.258l-.025-.024a4.903 4.903 0 0 0 3.926-8.35 4.903 4.903 0 0 0-8.35 3.926l-.024-.026a5.792 5.792 0 0 1-6.259 6.259l.024.025a4.843 4.843 0 0 0-5.302 5.299l-.024-.024a5.796 5.796 0 0 1-6.26 6.259l.025.024a4.903 4.903 0 1 0 4.424 4.424l.025.024a5.792 5.792 0 0 1 6.259-6.259Z"/><path fill="#003B2D" d="M11.118 22.172a4.87 4.87 0 0 0 1.393-3.905l.025.024a5.793 5.793 0 0 1 6.262-6.259l-.026-.024a4.903 4.903 0 1 0-4.424-4.424l-.024-.024a5.791 5.791 0 0 1-6.258 6.259l.024.024a4.894 4.894 0 1 0 3.03 8.33h-.002ZM52.422 8.873h3.96v19.271h-3.96V8.874Zm6.203 12.672a6.997 6.997 0 1 1 6.996 6.968 6.917 6.917 0 0 1-6.996-6.968Zm10.032 0a3.039 3.039 0 0 0-5.213-2.033 3.036 3.036 0 0 0 2.177 5.155 2.96 2.96 0 0 0 3.036-3.122Zm19.744-6.6V27.48c0 4.434-3.459 6.309-6.97 6.309a6.75 6.75 0 0 1-6.255-3.2l3.379-1.953a3.017 3.017 0 0 0 3.009 1.662 2.632 2.632 0 0 0 2.983-2.824v-1.206a4.688 4.688 0 0 1-3.855 1.716 6.708 6.708 0 0 1 0-13.41 4.689 4.689 0 0 1 3.855 1.716v-1.346l3.854.002Zm-3.853 6.335a3.2 3.2 0 1 0-3.194 3.067 2.986 2.986 0 0 0 3.194-3.067Zm6.092.265a6.995 6.995 0 1 1 6.997 6.968 6.917 6.917 0 0 1-6.996-6.968Zm10.033 0a3.04 3.04 0 0 0-5.214-2.034 3.038 3.038 0 0 0 2.178 5.156 2.96 2.96 0 0 0 3.036-3.122Zm5.811-10.137a2.377 2.377 0 1 1 4.572.91 2.378 2.378 0 0 1-2.196 1.466 2.399 2.399 0 0 1-2.376-2.376Zm.4 3.538h3.962v13.2h-3.967l.005-13.2Zm21.06 6.599a6.638 6.638 0 0 1-1.706 4.796 6.626 6.626 0 0 1-4.604 2.172 4.952 4.952 0 0 1-3.932-1.61v6.521h-3.96V14.945h3.96v1.24a4.956 4.956 0 0 1 3.932-1.609 6.625 6.625 0 0 1 6.31 6.97Zm-3.96 0a3.143 3.143 0 0 0-6.227-.505 3.14 3.14 0 0 0 3.087 3.725 3.009 3.009 0 0 0 2.962-1.972c.147-.399.207-.824.178-1.248Zm16.174 2.639c0 3.036-2.639 4.33-5.49 4.33a5.779 5.779 0 0 1-5.676-3.142l3.431-1.953a2.172 2.172 0 0 0 2.24 1.557c.949 0 1.425-.29 1.425-.817 0-1.454-6.494-.687-6.494-5.254 0-2.878 2.429-4.33 5.174-4.33a5.773 5.773 0 0 1 5.147 2.825l-3.379 1.821a1.91 1.91 0 0 0-1.768-1.161c-.686 0-1.109.267-1.109.739.005 1.505 6.499.5 6.499 5.385Zm14.47-9.239v13.2h-3.96v-1.241a4.523 4.523 0 0 1-3.774 1.61c-2.666 0-4.933-1.9-4.933-5.466v-8.103h3.96v7.523a2.18 2.18 0 0 0 1.371 2.254c.293.115.609.165.925.146 1.452 0 2.455-.844 2.455-2.719v-7.2l3.956-.004Zm22.702 5.095v8.104h-3.96v-7.761c0-1.32-.633-2.164-1.9-2.164-1.32 0-2.06.924-2.06 2.481v7.444h-3.959v-7.761c0-1.32-.633-2.164-1.901-2.164-1.32 0-2.059.924-2.059 2.481v7.444h-3.96v-13.2h3.96v1.213a4.061 4.061 0 0 1 3.538-1.582 3.927 3.927 0 0 1 3.457 1.741 4.353 4.353 0 0 1 3.828-1.741c3.031.001 5.016 2.165 5.016 5.465Zm3.351-5.176a2.939 2.939 0 1 0 0-5.878 2.939 2.939 0 0 0 0 5.878Z"/></svg>