<svg xmlns="http://www.w3.org/2000/svg" width="164" height="40" fill="none"><g fill="#5A6B71" clip-path="url(#a)"><path d="M48.078 28.246h11.66v-3.512h-7.516v-13.23h-4.144v16.742Zm18.564-2.341c-1.662 0-2.529-1.452-2.529-3.63 0-2.177.867-3.652 2.53-3.652 1.662 0 2.551 1.475 2.551 3.652 0 2.178-.89 3.63-2.552 3.63Zm.024 2.716c3.863 0 6.392-2.74 6.392-6.345 0-3.606-2.529-6.346-6.392-6.346-3.84 0-6.416 2.74-6.416 6.346 0 3.605 2.576 6.345 6.416 6.345Zm13.078 3.769c1.78 0 3.348-.397 4.402-1.334.96-.866 1.592-2.178 1.592-3.98V16.258h-3.653v1.288h-.046c-.703-1.007-1.78-1.64-3.372-1.64-2.974 0-5.034 2.483-5.034 5.995 0 3.676 2.505 5.69 5.198 5.69 1.452 0 2.365-.586 3.067-1.382h.094v1.194c0 1.452-.68 2.295-2.295 2.295-1.264 0-1.896-.539-2.107-1.17h-3.7c.375 2.505 2.553 3.863 5.854 3.863Zm-.023-7.633c-1.429 0-2.365-1.17-2.365-2.973 0-1.826.936-2.997 2.365-2.997 1.592 0 2.435 1.358 2.435 2.973 0 1.686-.773 2.997-2.435 2.997Zm13.531 1.148c-1.663 0-2.53-1.452-2.53-3.63 0-2.177.867-3.652 2.53-3.652 1.662 0 2.552 1.475 2.552 3.652 0 2.178-.89 3.63-2.552 3.63Zm.023 2.716c3.863 0 6.392-2.74 6.392-6.345 0-3.606-2.529-6.346-6.392-6.346-3.84 0-6.416 2.74-6.416 6.346 0 3.605 2.576 6.345 6.416 6.345Zm7.506-.375h3.817V16.258h-3.817v11.988Zm0-13.65h3.817v-3.091h-3.817v3.09Zm5.477 17.607h3.816v-5.198h.047c.749 1.007 1.85 1.616 3.395 1.616 3.138 0 5.222-2.482 5.222-6.369 0-3.606-1.944-6.345-5.128-6.345-1.639 0-2.81.726-3.629 1.803h-.071v-1.452h-3.652v15.945Zm6.275-6.532c-1.639 0-2.576-1.335-2.576-3.278 0-1.944.843-3.419 2.506-3.419 1.639 0 2.411 1.358 2.411 3.419 0 2.037-.889 3.278-2.341 3.278Zm12.414 2.949c3.138 0 5.456-1.357 5.456-3.98 0-3.067-2.482-3.605-4.589-3.957-1.522-.28-2.88-.398-2.88-1.24 0-.75.726-1.101 1.662-1.101 1.054 0 1.78.328 1.92 1.405h3.512c-.187-2.365-2.013-3.84-5.408-3.84-2.834 0-5.175 1.311-5.175 3.84 0 2.81 2.224 3.371 4.308 3.723 1.592.28 3.044.398 3.044 1.475 0 .773-.726 1.194-1.873 1.194-1.264 0-2.06-.585-2.201-1.78h-3.606c.117 2.646 2.318 4.262 5.83 4.262Zm10.643-.023c1.662 0 2.716-.655 3.582-1.826h.07v1.475h3.653V16.258h-3.817v6.696c0 1.429-.796 2.412-2.107 2.412-1.217 0-1.803-.726-1.803-2.037v-7.071h-3.793v7.867c0 2.67 1.452 4.472 4.215 4.472Zm8.965-.351h3.816v-6.72c0-1.428.703-2.435 1.897-2.435 1.147 0 1.686.75 1.686 2.037v7.118h3.816v-6.72c0-1.428.679-2.435 1.897-2.435 1.147 0 1.686.75 1.686 2.037v7.118h3.816V20.45c0-2.693-1.358-4.542-4.074-4.542-1.545 0-2.833.655-3.77 2.107h-.046c-.609-1.288-1.803-2.107-3.372-2.107-1.733 0-2.88.82-3.629 2.06h-.071v-1.709h-3.652v11.988ZM24.793 1.929 20.956.9l-3.234 12.067-2.919-10.895-3.837 1.029 3.154 11.77-7.856-7.855-2.81 2.809 8.618 8.617-10.731-2.876-1.028 3.837 11.725 3.142a7.945 7.945 0 1 1 15.482-.011l10.656 2.855 1.028-3.837L27.432 18.4l10.732-2.876-1.028-3.837-11.771 3.155 7.856-7.857-2.81-2.809-8.497 8.498L24.793 1.93Z"/><path d="M27.508 22.58a7.929 7.929 0 0 1-1.977 3.641l7.72 7.72 2.81-2.809-8.553-8.552Zm-2.052 3.722a7.94 7.94 0 0 1-3.55 2.1l2.81 10.483 3.836-1.028-3.096-11.555Zm-3.698 2.138a7.96 7.96 0 0 1-1.983.25 7.95 7.95 0 0 1-2.12-.287l-2.811 10.494 3.837 1.028 3.077-11.486Zm-4.234-.076a7.943 7.943 0 0 1-3.488-2.13l-7.74 7.74 2.81 2.808 8.418-8.418Zm-3.554-2.198a7.927 7.927 0 0 1-1.927-3.596L1.352 25.434l1.028 3.838 11.59-3.106Z"/></g><defs><clipPath id="a"><path fill="#fff" d="M0 0h163.902v40H0z"/></clipPath></defs></svg>