<svg xmlns="http://www.w3.org/2000/svg" width="30" height="30" fill="none"><path fill="#0D883C" d="M0 0h30v30H0z"/><path fill="#fff" d="M14.334 6.049c.21-.645 1.122-.645 1.332 0l1.646 5.068a.7.7 0 0 0 .666.484h5.33c.677 0 .96.867.41 1.266L19.409 16a.7.7 0 0 0-.255.783L20.8 21.85c.21.645-.529 1.181-1.077.783L15.41 19.5a.7.7 0 0 0-.822 0l-4.312 3.132c-.548.399-1.286-.138-1.077-.783l1.647-5.068a.7.7 0 0 0-.254-.783L6.28 12.867c-.548-.399-.266-1.266.412-1.266h5.329a.7.7 0 0 0 .665-.484l1.647-5.068Z"/></svg>